<?xml version="1.0" encoding="UTF-8" ?>
<!DOCTYPE svg PUBLIC "-//W3C//DTD SVG 1.1//EN" "http://www.w3.org/Graphics/SVG/1.1/DTD/svg11.dtd">
<svg width="128pt" height="128pt" viewBox="0 0 128 128" version="1.1" xmlns="http://www.w3.org/2000/svg">
<g id="#847249ef">
<path fill="#847249" opacity="0.94" d=" M 29.89 15.04 C 54.41 14.94 78.92 15.04 103.44 14.96 C 104.08 18.38 104.55 21.84 104.59 25.33 C 104.03 22.30 103.27 19.31 102.56 16.32 C 78.78 15.78 55.00 15.95 31.22 16.10 C 30.61 18.19 29.97 20.28 29.37 22.37 C 29.48 19.92 29.67 17.48 29.89 15.04 Z" />
</g>
<g id="#e8dec7fe">
<path fill="#e8dec7" opacity="1.00" d=" M 31.22 16.10 C 55.00 15.95 78.78 15.78 102.56 16.32 C 103.27 19.31 104.03 22.30 104.59 25.33 C 104.64 25.87 104.73 26.96 104.77 27.51 C 104.78 27.91 104.79 28.71 104.80 29.11 C 104.39 27.63 103.94 26.18 103.49 24.72 C 103.00 23.11 102.51 21.50 102.05 19.89 C 101.87 19.26 101.50 17.99 101.32 17.35 C 78.11 16.88 54.88 16.59 31.68 17.41 C 31.88 18.07 32.29 19.37 32.49 20.02 C 32.62 20.42 32.87 21.22 32.99 21.62 C 34.27 21.12 35.55 20.60 36.84 20.12 C 44.12 20.18 51.43 20.19 58.68 20.98 C 58.94 21.27 59.45 21.84 59.70 22.12 C 49.72 22.98 39.52 22.20 29.64 24.11 L 28.81 24.43 C 28.95 23.92 29.23 22.89 29.37 22.37 C 29.97 20.28 30.61 18.19 31.22 16.10 Z" />
</g>
<g id="#c4a363ff">
<path fill="#c4a363" opacity="1.00" d=" M 31.68 17.41 C 54.88 16.59 78.11 16.88 101.32 17.35 C 101.50 17.99 101.87 19.26 102.05 19.89 C 87.92 20.43 73.82 21.47 59.70 22.12 C 59.45 21.84 58.94 21.27 58.68 20.98 C 58.21 20.42 57.27 19.29 56.80 18.72 C 48.43 18.25 40.05 17.81 31.68 17.41 Z" />
</g>
<g id="#f8f8f8ff">
<path fill="#f8f8f8" opacity="1.00" d=" M 31.68 17.41 C 40.05 17.81 48.43 18.25 56.80 18.72 C 57.27 19.29 58.21 20.42 58.68 20.98 C 51.43 20.19 44.12 20.18 36.84 20.12 C 35.39 20.09 33.94 20.05 32.49 20.02 C 32.29 19.37 31.88 18.07 31.68 17.41 Z" />
</g>
<g id="#78a9f5ff">
<path fill="#78a9f5" opacity="1.00" d=" M 32.49 20.02 C 33.94 20.05 35.39 20.09 36.84 20.12 C 35.55 20.60 34.27 21.12 32.99 21.62 C 32.87 21.22 32.62 20.42 32.49 20.02 Z" />
</g>
<g id="#d0b171ff">
<path fill="#d0b171" opacity="1.00" d=" M 59.70 22.12 C 73.82 21.47 87.92 20.43 102.05 19.89 C 102.51 21.50 103.00 23.11 103.49 24.72 C 78.59 25.88 53.69 27.09 28.83 28.94 C 29.12 27.33 29.38 25.72 29.64 24.11 C 39.52 22.20 49.72 22.98 59.70 22.12 Z" />
<path fill="#d0b171" opacity="1.00" d=" M 25.11 69.59 C 35.78 72.71 46.92 73.82 58.00 74.19 C 58.27 77.06 58.56 79.92 58.84 82.79 C 55.40 82.56 51.96 82.36 48.52 82.17 C 41.00 81.70 33.51 80.75 26.03 79.88 C 25.78 77.16 25.49 74.49 25.26 71.79 C 25.22 71.24 25.14 70.14 25.11 69.59 Z" />
</g>
<g id="#f4da9ffe">
<path fill="#f4da9f" opacity="1.00" d=" M 26.23 34.83 C 26.85 31.33 27.25 27.68 28.81 24.43 L 29.64 24.11 C 29.38 25.72 29.12 27.33 28.83 28.94 C 28.53 30.57 28.20 32.20 27.87 33.83 C 27.52 35.58 27.16 37.33 26.81 39.09 C 52.77 37.66 78.77 36.59 104.70 34.56 C 104.73 33.38 104.78 31.03 104.81 29.85 L 104.80 29.11 C 104.79 28.71 104.78 27.91 104.77 27.51 C 105.35 29.28 105.94 31.07 106.25 32.91 C 106.82 36.92 107.37 40.94 107.96 44.95 C 80.31 45.05 52.66 45.03 25.02 44.96 C 25.31 42.53 25.61 40.09 25.90 37.66 C 26.01 36.71 26.13 35.77 26.23 34.83 Z" />
</g>
<g id="#dcbe80ff">
<path fill="#dcbe80" opacity="1.00" d=" M 28.83 28.94 C 53.69 27.09 78.59 25.88 103.49 24.72 C 103.94 26.18 104.39 27.63 104.80 29.11 L 104.81 29.85 C 79.14 30.50 53.50 32.26 27.87 33.83 C 28.20 32.20 28.53 30.57 28.83 28.94 Z" />
</g>
<g id="#e9cc8fff">
<path fill="#e9cc8f" opacity="1.00" d=" M 27.87 33.83 C 53.50 32.26 79.14 30.50 104.81 29.85 C 104.78 31.03 104.73 33.38 104.70 34.56 C 78.77 36.59 52.77 37.66 26.81 39.09 C 27.16 37.33 27.52 35.58 27.87 33.83 Z" />
</g>
<g id="#efe2c3fe">
<path fill="#efe2c3" opacity="1.00" d=" M 107.96 44.95 C 107.37 40.94 106.82 36.92 106.25 32.91 C 107.67 37.37 109.02 41.85 110.53 46.27 C 81.08 45.73 51.62 45.92 22.16 46.16 C 23.05 44.01 23.89 41.85 24.87 39.75 C 25.21 39.05 25.56 38.36 25.90 37.66 C 25.61 40.09 25.31 42.53 25.02 44.96 C 52.66 45.03 80.31 45.05 107.96 44.95 Z" />
</g>
<g id="#897953de">
<path fill="#897953" opacity="0.87" d=" M 24.87 39.75 C 23.23 38.51 23.99 34.60 26.23 34.83 C 26.13 35.77 26.01 36.71 25.90 37.66 C 25.56 38.36 25.21 39.05 24.87 39.75 Z" />
</g>
<g id="#806c3dfb">
<path fill="#806c3d" opacity="1.00" d=" M 20.80 46.22 L 22.16 46.16 C 51.62 45.92 81.08 45.73 110.53 46.27 L 112.05 46.35 C 111.64 46.52 110.81 46.86 110.39 47.03 L 109.94 47.11 L 109.20 47.17 C 80.72 47.04 52.24 46.78 23.76 47.37 L 23.01 47.30 L 22.63 47.20 C 22.17 46.95 21.26 46.47 20.80 46.22 Z" />
</g>
<g id="#574928af">
<path fill="#574928" opacity="0.69" d=" M 22.63 47.20 L 23.01 47.30 C 23.09 48.72 23.24 51.57 23.32 53.00 L 23.30 53.26 C 21.34 52.10 21.00 48.77 22.63 47.20 Z" />
</g>
<g id="#d3bf95fe">
<path fill="#d3bf95" opacity="1.00" d=" M 23.01 47.30 L 23.76 47.37 C 24.15 47.40 24.92 47.47 25.31 47.51 C 25.07 49.32 24.83 51.14 24.59 52.95 C 24.41 54.23 24.24 55.50 24.09 56.78 L 23.97 57.79 C 23.87 57.17 23.66 55.94 23.56 55.33 C 23.50 54.74 23.38 53.58 23.32 53.00 C 23.24 51.57 23.09 48.72 23.01 47.30 Z" />
</g>
<g id="#f2e7cbff">
<path fill="#f2e7cb" opacity="1.00" d=" M 23.76 47.37 C 52.24 46.78 80.72 47.04 109.20 47.17 C 109.38 50.21 109.64 53.26 109.74 56.32 C 109.43 61.05 108.82 65.76 108.50 70.50 C 108.37 68.89 108.10 65.68 107.97 64.07 L 107.97 63.37 C 107.96 58.24 107.97 53.12 107.99 48.00 C 80.43 47.73 52.85 48.63 25.31 47.51 C 24.92 47.47 24.15 47.40 23.76 47.37 Z" />
</g>
<g id="#b7a071fe">
<path fill="#b7a071" opacity="1.00" d=" M 109.20 47.17 L 109.94 47.11 C 109.72 48.80 109.79 50.52 109.83 52.22 C 109.82 53.04 109.80 54.67 109.79 55.49 L 109.74 56.32 C 109.64 53.26 109.38 50.21 109.20 47.17 Z" />
</g>
<g id="#5b4c2ab8">
<path fill="#5b4c2a" opacity="0.72" d=" M 109.94 47.11 L 110.39 47.03 C 111.90 48.43 111.50 51.31 109.84 52.43 L 109.83 52.22 C 109.79 50.52 109.72 48.80 109.94 47.11 Z" />
</g>
<g id="#b3914eff">
<path fill="#b3914e" opacity="1.00" d=" M 25.31 47.51 C 52.85 48.63 80.43 47.73 107.99 48.00 C 107.97 53.12 107.96 58.24 107.97 63.37 C 97.22 63.27 86.59 61.43 75.96 60.03 C 58.84 57.62 41.64 55.80 24.59 52.95 C 24.83 51.14 25.07 49.32 25.31 47.51 Z" />
</g>
<g id="#bd9c5aff">
<path fill="#bd9c5a" opacity="1.00" d=" M 24.59 52.95 C 41.64 55.80 58.84 57.62 75.96 60.03 C 86.59 61.43 97.22 63.27 107.97 63.37 L 107.97 64.07 C 107.86 66.50 107.72 68.93 107.57 71.36 L 107.47 72.77 C 96.18 72.46 84.99 70.85 73.87 68.97 C 74.16 66.42 74.45 63.89 74.72 61.35 C 68.77 61.20 62.82 61.07 56.87 60.95 C 57.00 62.64 57.13 64.33 57.27 66.02 C 46.32 64.95 35.46 63.22 24.54 61.87 C 24.39 60.17 24.22 58.48 24.09 56.78 C 24.24 55.50 24.41 54.23 24.59 52.95 Z" />
</g>
<g id="#2c25145c">
<path fill="#2c2514" opacity="0.36" d=" M 109.83 52.22 L 109.84 52.43 C 110.09 55.71 110.37 59.01 110.25 62.31 C 110.13 60.03 109.91 57.76 109.79 55.49 C 109.80 54.67 109.82 53.04 109.83 52.22 Z" />
</g>
<g id="#2a23135e">
<path fill="#2a2313" opacity="0.37" d=" M 23.30 53.26 L 23.32 53.00 C 23.38 53.58 23.50 54.74 23.56 55.33 C 23.44 58.40 23.34 61.47 23.27 64.54 C 23.17 63.28 23.08 62.02 22.99 60.76 C 23.07 58.89 23.22 55.14 23.30 53.26 Z" />
</g>
<g id="#a29066f6">
<path fill="#a29066" opacity="0.96" d=" M 23.56 55.33 C 23.66 55.94 23.87 57.17 23.97 57.79 C 23.71 60.11 23.50 62.44 23.34 64.78 L 23.30 65.56 L 23.27 64.54 C 23.34 61.47 23.44 58.40 23.56 55.33 Z" />
</g>
<g id="#7a673aec">
<path fill="#7a673a" opacity="0.93" d=" M 109.74 56.32 L 109.79 55.49 C 109.91 57.76 110.13 60.03 110.25 62.31 C 110.05 66.45 109.56 70.56 108.77 74.64 L 108.70 74.96 L 108.64 73.79 L 108.59 72.91 C 108.57 72.31 108.52 71.10 108.50 70.50 C 108.82 65.76 109.43 61.05 109.74 56.32 Z" />
</g>
<g id="#eedfbcfe">
<path fill="#eedfbc" opacity="1.00" d=" M 23.97 57.79 L 24.09 56.78 C 24.22 58.48 24.39 60.17 24.54 61.87 C 24.68 63.80 24.97 67.66 25.11 69.59 C 25.14 70.14 25.22 71.24 25.26 71.79 C 25.39 77.53 25.66 83.27 25.85 89.01 C 25.94 92.29 25.98 95.58 26.12 98.86 C 26.29 102.86 26.56 106.87 26.88 110.86 C 53.22 111.07 79.55 112.45 105.91 112.01 C 105.92 111.27 105.94 109.81 105.96 109.07 C 106.00 107.27 106.07 103.68 106.11 101.89 C 106.25 97.51 106.39 93.13 106.60 88.76 C 106.70 87.14 106.79 85.52 106.87 83.89 C 107.04 80.18 107.19 76.47 107.47 72.77 L 107.57 71.36 C 107.83 71.75 108.34 72.53 108.59 72.91 L 108.64 73.79 C 108.67 76.95 108.69 80.11 108.66 83.28 C 108.47 88.74 108.30 94.21 108.23 99.68 C 108.22 100.18 108.19 101.17 108.17 101.67 C 107.92 104.98 107.62 108.30 107.44 111.62 C 90.06 113.95 72.48 112.91 55.00 113.01 C 44.92 112.98 34.84 112.99 24.76 112.99 C 24.62 110.44 24.50 107.89 24.42 105.33 C 24.31 100.81 24.29 96.29 24.21 91.77 C 24.14 88.77 24.09 85.78 23.89 82.79 C 23.85 82.17 23.77 80.94 23.73 80.33 C 23.57 75.14 23.38 69.96 23.34 64.78 C 23.50 62.44 23.71 60.11 23.97 57.79 Z" />
</g>
<g id="#00000021">
</g>
<g id="#8c774cff">
<path fill="#8c774c" opacity="1.00" d=" M 56.87 60.95 C 62.82 61.07 68.77 61.20 74.72 61.35 C 74.45 63.89 74.16 66.42 73.87 68.97 C 73.30 73.64 72.65 78.30 71.96 82.96 C 75.96 82.49 79.94 81.83 83.96 81.61 C 82.02 84.38 80.08 87.13 78.14 89.90 C 76.51 92.20 74.82 94.46 73.03 96.65 C 71.99 97.80 70.88 98.90 69.75 99.96 C 68.34 101.13 66.88 102.30 65.95 103.91 C 63.47 101.78 61.64 99.05 59.80 96.38 C 61.83 98.19 63.84 100.02 65.80 101.91 C 71.17 95.88 76.14 89.53 81.10 83.16 C 78.16 83.60 75.22 84.05 72.28 84.47 C 71.78 84.11 70.79 83.38 70.29 83.02 C 71.00 76.36 71.69 69.70 72.28 63.04 C 67.81 63.03 63.34 63.02 58.87 63.01 C 59.47 68.13 60.12 73.25 60.70 78.37 C 60.85 80.07 61.14 83.46 61.29 85.16 C 58.44 84.72 55.58 84.27 52.73 83.81 C 54.83 87.61 57.14 91.32 58.71 95.38 C 55.21 91.06 51.79 86.67 48.52 82.17 C 51.96 82.36 55.40 82.56 58.84 82.79 C 58.56 79.92 58.27 77.06 58.00 74.19 C 57.75 71.46 57.52 68.75 57.27 66.02 C 57.13 64.33 57.00 62.64 56.87 60.95 Z" />
</g>
<g id="#c7a666ff">
<path fill="#c7a666" opacity="1.00" d=" M 24.54 61.87 C 35.46 63.22 46.32 64.95 57.27 66.02 C 57.52 68.75 57.75 71.46 58.00 74.19 C 46.92 73.82 35.78 72.71 25.11 69.59 C 24.97 67.66 24.68 63.80 24.54 61.87 Z" />
</g>
<g id="#b2955aff">
<path fill="#b2955a" opacity="1.00" d=" M 58.87 63.01 C 63.34 63.02 67.81 63.03 72.28 63.04 C 71.69 69.70 71.00 76.36 70.29 83.02 C 67.27 81.13 64.00 79.69 60.70 78.37 C 60.12 73.25 59.47 68.13 58.87 63.01 Z" />
</g>
<g id="#d2ba89ff">
<path fill="#d2ba89" opacity="1.00" d=" M 107.57 71.36 C 107.72 68.93 107.86 66.50 107.97 64.07 C 108.10 65.68 108.37 68.89 108.50 70.50 C 108.52 71.10 108.57 72.31 108.59 72.91 C 108.34 72.53 107.83 71.75 107.57 71.36 Z" />
</g>
<g id="#716036e6">
<path fill="#716036" opacity="0.90" d=" M 23.30 65.56 L 23.34 64.78 C 23.38 69.96 23.57 75.14 23.73 80.33 L 23.68 79.61 C 23.64 78.90 23.56 77.47 23.51 76.76 C 23.40 73.02 23.33 69.29 23.30 65.56 Z" />
</g>
<g id="#c9a968ff">
<path fill="#c9a968" opacity="1.00" d=" M 73.87 68.97 C 84.99 70.85 96.18 72.46 107.47 72.77 C 107.19 76.47 107.04 80.18 106.87 83.89 C 99.28 82.79 91.66 81.54 83.96 81.61 C 79.94 81.83 75.96 82.49 71.96 82.96 C 72.65 78.30 73.30 73.64 73.87 68.97 Z" />
</g>
<g id="#dbbd7fff">
<path fill="#dbbd7f" opacity="1.00" d=" M 25.26 71.79 C 25.49 74.49 25.78 77.16 26.03 79.88 C 33.51 80.75 41.00 81.70 48.52 82.17 C 51.79 86.67 55.21 91.06 58.71 95.38 C 48.41 90.76 36.79 91.03 25.85 89.01 C 25.66 83.27 25.39 77.53 25.26 71.79 Z" />
</g>
<g id="#bda97dfc">
<path fill="#bda97d" opacity="1.00" d=" M 108.66 83.28 C 108.69 80.11 108.67 76.95 108.64 73.79 L 108.70 74.96 C 108.72 76.49 108.76 79.53 108.78 81.06 C 108.76 81.42 108.72 82.14 108.70 82.51 L 108.66 83.28 Z" />
</g>
<g id="#463b218f">
<path fill="#463b21" opacity="0.56" d=" M 108.70 74.96 L 108.77 74.64 C 110.63 76.06 110.68 79.34 109.14 81.04 L 108.78 81.06 C 108.76 79.53 108.72 76.49 108.70 74.96 Z" />
</g>
<g id="#00000040">
</g>
<g id="#c1a56cff">
<path fill="#c1a56c" opacity="1.00" d=" M 60.70 78.37 C 64.00 79.69 67.27 81.13 70.29 83.02 C 70.79 83.38 71.78 84.11 72.28 84.47 C 75.22 84.05 78.16 83.60 81.10 83.16 C 76.14 89.53 71.17 95.88 65.80 101.91 C 63.84 100.02 61.83 98.19 59.80 96.38 C 59.44 96.04 59.08 95.71 58.71 95.38 C 57.14 91.32 54.83 87.61 52.73 83.81 C 55.58 84.27 58.44 84.72 61.29 85.16 C 61.14 83.46 60.85 80.07 60.70 78.37 Z" />
</g>
<g id="#3028168a">
<path fill="#302816" opacity="0.54" d=" M 23.68 79.61 L 23.73 80.33 C 23.77 80.94 23.85 82.17 23.89 82.79 C 24.02 86.01 24.10 89.26 24.22 92.49 C 24.06 88.20 23.86 83.90 23.68 79.61 Z" />
</g>
<g id="#d4b576ff">
<path fill="#d4b576" opacity="1.00" d=" M 83.96 81.61 C 91.66 81.54 99.28 82.79 106.87 83.89 C 106.79 85.52 106.70 87.14 106.60 88.76 C 106.49 90.18 106.35 91.60 106.23 93.02 C 96.88 91.84 87.54 90.55 78.14 89.90 C 80.08 87.13 82.02 84.38 83.96 81.61 Z" />
</g>
<g id="#1e1a0e40">
</g>
<g id="#b9a982f9">
<path fill="#b9a982" opacity="0.98" d=" M 23.89 82.79 C 24.09 85.78 24.14 88.77 24.21 91.77 L 24.22 92.49 C 24.10 89.26 24.02 86.01 23.89 82.79 Z" />
</g>
<g id="#78653be5">
<path fill="#78653b" opacity="0.90" d=" M 108.66 83.28 L 108.70 82.51 C 108.76 84.05 108.86 85.59 108.94 87.13 C 108.85 91.56 108.62 95.98 108.26 100.40 L 108.23 99.68 C 108.30 94.21 108.47 88.74 108.66 83.28 Z" />
</g>
<g id="#e7ca8cff">
<path fill="#e7ca8c" opacity="1.00" d=" M 25.85 89.01 C 36.79 91.03 48.41 90.76 58.71 95.38 C 59.08 95.71 59.44 96.04 59.80 96.38 C 61.64 99.05 63.47 101.78 65.95 103.91 C 68.27 105.31 69.97 101.95 69.75 99.96 C 70.88 98.90 71.99 97.80 73.03 96.65 C 83.97 98.93 95.10 100.02 106.11 101.89 C 106.07 103.68 106.00 107.27 105.96 109.07 C 79.22 106.61 52.79 101.85 26.12 98.86 C 25.98 95.58 25.94 92.29 25.85 89.01 Z" />
</g>
<g id="#dec182ff">
<path fill="#dec182" opacity="1.00" d=" M 106.23 93.02 C 106.35 91.60 106.49 90.18 106.60 88.76 C 106.39 93.13 106.25 97.51 106.11 101.89 C 95.10 100.02 83.97 98.93 73.03 96.65 C 74.82 94.46 76.51 92.20 78.14 89.90 C 87.54 90.55 96.88 91.84 106.23 93.02 Z" />
</g>
<g id="#816f45f3">
<path fill="#816f45" opacity="0.95" d=" M 24.22 92.49 L 24.21 91.77 C 24.29 96.29 24.31 100.81 24.42 105.33 L 24.40 104.61 C 24.35 100.57 24.29 96.53 24.22 92.49 Z" />
</g>
<g id="#f0d599ff">
<path fill="#f0d599" opacity="1.00" d=" M 26.12 98.86 C 52.79 101.85 79.22 106.61 105.96 109.07 C 105.94 109.81 105.92 111.27 105.91 112.01 C 79.55 112.45 53.22 111.07 26.88 110.86 C 26.56 106.87 26.29 102.86 26.12 98.86 Z" />
</g>
<g id="#ccb37dfe">
<path fill="#ccb37d" opacity="1.00" d=" M 65.95 103.91 C 66.88 102.30 68.34 101.13 69.75 99.96 C 69.97 101.95 68.27 105.31 65.95 103.91 Z" />
</g>
<g id="#362d196f">
<path fill="#362d19" opacity="0.44" d=" M 108.23 99.68 L 108.26 100.40 C 108.41 103.40 108.69 106.43 108.87 109.44 L 108.49 108.92 C 108.41 107.11 108.25 103.48 108.17 101.67 C 108.19 101.17 108.22 100.18 108.23 99.68 Z" />
</g>
<g id="#b3a178f6">
<path fill="#b3a178" opacity="0.96" d=" M 107.44 111.62 C 107.62 108.30 107.92 104.98 108.17 101.67 C 108.25 103.48 108.41 107.11 108.49 108.92 C 108.51 109.54 108.55 110.78 108.57 111.40 L 107.44 111.62 Z" />
</g>
<g id="#504326b2">
<path fill="#504326" opacity="0.70" d=" M 24.40 104.61 L 24.42 105.33 C 24.50 107.89 24.62 110.44 24.76 112.99 C 34.84 112.99 44.92 112.98 55.00 113.01 L 55.00 114.00 C 49.55 114.08 44.11 114.27 38.66 114.40 C 34.09 114.44 29.52 114.55 24.96 114.74 C 24.68 113.19 24.52 111.62 24.42 110.05 C 24.36 108.24 24.39 106.42 24.40 104.61 Z" />
</g>
<g id="#0000000e">
</g>
<g id="#6f5e36e3">
<path fill="#6f5e36" opacity="0.89" d=" M 107.44 111.62 L 108.57 111.40 C 108.58 111.91 108.60 112.93 108.62 113.45 C 104.86 113.79 101.11 114.14 97.36 114.50 C 83.24 114.25 69.12 113.86 55.00 114.00 L 55.00 113.01 C 72.48 112.91 90.06 113.95 107.44 111.62 Z" />
</g>
<g id="#00000022">
</g>
<g id="#0000003a">
</g>
</svg>
